<svg width="20" height="21" viewBox="0 0 20 21" fill="none" xmlns="http://www.w3.org/2000/svg">
<path d="M19.3959 13.6251C19.3936 12.9998 19.2037 12.3895 18.8509 11.8733C18.4981 11.357 17.9985 10.9585 17.4167 10.7292L19.3646 3.43755C19.4053 3.28226 19.4096 3.11966 19.377 2.96246C19.3445 2.80526 19.2761 2.6577 19.1771 2.5313C19.0759 2.41287 18.9495 2.31864 18.8071 2.25554C18.6647 2.19245 18.5099 2.16209 18.3542 2.16672H4.08337L3.73962 0.854217C3.67986 0.63225 3.54835 0.436285 3.36559 0.296858C3.18283 0.157432 2.95908 0.0823752 2.72921 0.0833841H0.645874V2.16672H1.92712L4.51046 11.8126C4.5715 12.0398 4.70768 12.2397 4.89683 12.3797C5.08598 12.5196 5.31695 12.5914 5.55212 12.5834H16.2709C16.5471 12.5834 16.8121 12.6931 17.0074 12.8885C17.2028 13.0838 17.3125 13.3488 17.3125 13.6251C17.3125 13.9013 17.2028 14.1663 17.0074 14.3616C16.8121 14.557 16.5471 14.6667 16.2709 14.6667H2.72921C2.45294 14.6667 2.18799 14.7765 1.99264 14.9718C1.79729 15.1672 1.68754 15.4321 1.68754 15.7084C1.68754 15.9847 1.79729 16.2496 1.99264 16.445C2.18799 16.6403 2.45294 16.75 2.72921 16.75H3.95837C3.78706 17.2221 3.73201 17.7284 3.79788 18.2262C3.86376 18.724 4.04863 19.1986 4.33683 19.6098C4.62503 20.021 5.00808 20.3567 5.45353 20.5885C5.89899 20.8202 6.39373 20.9412 6.89587 20.9412C7.39801 20.9412 7.89276 20.8202 8.33821 20.5885C8.78367 20.3567 9.16671 20.021 9.45492 19.6098C9.74312 19.1986 9.92798 18.724 9.99386 18.2262C10.0597 17.7284 10.0047 17.2221 9.83337 16.75H12.2917C12.1358 17.1798 12.076 17.6386 12.1167 18.094C12.1574 18.5494 12.2975 18.9904 12.5272 19.3857C12.7568 19.7811 13.0705 20.1212 13.4459 20.3821C13.8214 20.643 14.2495 20.8184 14.7001 20.8958C15.1507 20.9733 15.6128 20.9509 16.0539 20.8302C16.4949 20.7096 16.904 20.4936 17.2525 20.1976C17.601 19.9016 17.8802 19.5327 18.0706 19.117C18.2609 18.7013 18.3578 18.2489 18.3542 17.7917C18.3523 17.2536 18.2086 16.7254 17.9375 16.2605C18.383 15.9796 18.7502 15.5908 19.0052 15.1301C19.2601 14.6693 19.3945 14.1516 19.3959 13.6251ZM15.323 10.5001H6.37504L4.64587 4.25005H17L15.323 10.5001ZM6.89587 18.8334C6.68985 18.8334 6.48845 18.7723 6.31715 18.6578C6.14585 18.5434 6.01234 18.3807 5.9335 18.1903C5.85466 18 5.83403 17.7906 5.87422 17.5885C5.91441 17.3864 6.01362 17.2008 6.1593 17.0551C6.30498 16.9095 6.49059 16.8103 6.69265 16.7701C6.89472 16.7299 7.10416 16.7505 7.2945 16.8293C7.48484 16.9082 7.64753 17.0417 7.76199 17.213C7.87645 17.3843 7.93754 17.5857 7.93754 17.7917C7.93754 18.068 7.82779 18.3329 7.63244 18.5283C7.43709 18.7236 7.17214 18.8334 6.89587 18.8334ZM15.2292 18.8334C15.0232 18.8334 14.8218 18.7723 14.6505 18.6578C14.4792 18.5434 14.3457 18.3807 14.2668 18.1903C14.188 18 14.1674 17.7906 14.2076 17.5885C14.2477 17.3864 14.347 17.2008 14.4926 17.0551C14.6383 16.9095 14.8239 16.8103 15.026 16.7701C15.228 16.7299 15.4375 16.7505 15.6278 16.8293C15.8182 16.9082 15.9809 17.0417 16.0953 17.213C16.2098 17.3843 16.2709 17.5857 16.2709 17.7917C16.2709 18.068 16.1611 18.3329 15.9658 18.5283C15.7704 18.7236 15.5055 18.8334 15.2292 18.8334Z" fill="white"/>
</svg>
