<svg width="21" height="19" viewBox="0 0 21 19" fill="none" xmlns="http://www.w3.org/2000/svg">
<path d="M4.98956 11.8854L3.63539 10.5417L15.7083 10.5417C15.9846 10.5417 16.2495 10.4319 16.4449 10.2366C16.6402 10.0412 16.75 9.77627 16.75 9.5C16.75 9.22373 16.6402 8.95878 16.4449 8.76343C16.2495 8.56808 15.9846 8.45833 15.7083 8.45833L3.63539 8.45833L4.98956 7.11458C5.08719 7.01775 5.16469 6.90254 5.21757 6.7756C5.27046 6.64866 5.29768 6.51251 5.29768 6.375C5.29768 6.23749 5.27046 6.10134 5.21757 5.9744C5.16469 5.84746 5.08719 5.73225 4.98956 5.63542C4.89272 5.53778 4.77751 5.46029 4.65058 5.40741C4.52364 5.35452 4.38749 5.32729 4.24998 5.32729C4.11246 5.32729 3.97631 5.35452 3.84938 5.40741C3.72244 5.46029 3.60723 5.53778 3.51039 5.63542L0.385394 8.76042C0.28776 8.85725 0.210266 8.97246 0.157382 9.0994C0.104498 9.22634 0.0772705 9.36249 0.0772705 9.5C0.0772705 9.63751 0.104498 9.77366 0.157382 9.9006C0.210266 10.0275 0.28776 10.1427 0.385394 10.2396L3.51039 13.3646C3.70654 13.5607 3.97258 13.6709 4.24998 13.6709C4.52737 13.6709 4.79341 13.5607 4.98956 13.3646C5.18571 13.1684 5.29591 12.9024 5.29591 12.625C5.29591 12.3476 5.18571 12.0816 4.98956 11.8854ZM7.37498 3.25V5.33333C7.37498 5.6096 7.48472 5.87455 7.68007 6.0699C7.87542 6.26525 8.14038 6.375 8.41664 6.375C8.69291 6.375 8.95786 6.26525 9.15321 6.0699C9.34856 5.87455 9.45831 5.6096 9.45831 5.33333L9.45831 3.25C9.45831 2.97373 9.56806 2.70878 9.76341 2.51343C9.95876 2.31808 10.2237 2.20833 10.5 2.20833H17.7916C18.0679 2.20833 18.3329 2.31808 18.5282 2.51343C18.7236 2.70878 18.8333 2.97373 18.8333 3.25V15.75C18.8333 16.0263 18.7236 16.2912 18.5282 16.4866C18.3329 16.6819 18.0679 16.7917 17.7916 16.7917H10.5C10.2237 16.7917 9.95876 16.6819 9.76341 16.4866C9.56806 16.2912 9.45831 16.0263 9.45831 15.75V13.6667C9.45831 13.3904 9.34856 13.1254 9.15321 12.9301C8.95786 12.7347 8.69291 12.625 8.41664 12.625C8.14038 12.625 7.87542 12.7347 7.68007 12.9301C7.48472 13.1254 7.37498 13.3904 7.37498 13.6667V15.75C7.37498 16.5788 7.70422 17.3737 8.29027 17.9597C8.87632 18.5458 9.67118 18.875 10.5 18.875H17.7916C18.6204 18.875 19.4153 18.5458 20.0014 17.9597C20.5874 17.3737 20.9166 16.5788 20.9166 15.75V3.25C20.9166 2.4212 20.5874 1.62634 20.0014 1.04029C19.4153 0.454241 18.6204 0.125 17.7916 0.125H10.5C9.67118 0.125 8.87632 0.454241 8.29027 1.04029C7.70422 1.62634 7.37498 2.4212 7.37498 3.25Z" fill="white"/>
</svg>
