<svg width="21" height="21" viewBox="0 0 21 21" fill="none" xmlns="http://www.w3.org/2000/svg">
<path d="M10.5 0.083374C8.4797 0.0872126 6.50408 0.67849 4.81381 1.78518C3.12355 2.89188 1.79159 4.46623 0.980178 6.31647C0.168767 8.1667 -0.0870776 10.213 0.243808 12.206C0.574694 14.1991 1.47803 16.0529 2.84378 17.5417C3.81922 18.599 5.0031 19.4429 6.3208 20.02C7.6385 20.5972 9.06147 20.8952 10.5 20.8952C11.9386 20.8952 13.3616 20.5972 14.6793 20.02C15.997 19.4429 17.1808 18.599 18.1563 17.5417C19.522 16.0529 20.4254 14.1991 20.7563 12.206C21.0871 10.213 20.8313 8.1667 20.0199 6.31647C19.2085 4.46623 17.8765 2.89188 16.1863 1.78518C14.496 0.67849 12.5204 0.0872126 10.5 0.083374ZM10.5 18.8334C8.34218 18.8301 6.26973 17.9899 4.71878 16.4896C5.18966 15.3433 5.99069 14.3628 7.02009 13.6728C8.04948 12.9828 9.26077 12.6144 10.5 12.6144C11.7393 12.6144 12.9506 12.9828 13.98 13.6728C15.0094 14.3628 15.8104 15.3433 16.2813 16.4896C14.7303 17.9899 12.6579 18.8301 10.5 18.8334ZM8.4167 8.41671C8.4167 8.00466 8.53888 7.60187 8.7678 7.25927C8.99672 6.91667 9.32209 6.64964 9.70277 6.49196C10.0835 6.33427 10.5023 6.29302 10.9065 6.3734C11.3106 6.45379 11.6818 6.65221 11.9732 6.94357C12.2645 7.23493 12.4629 7.60614 12.5433 8.01027C12.6237 8.4144 12.5825 8.83328 12.4248 9.21396C12.2671 9.59464 12.0001 9.92001 11.6575 10.1489C11.3149 10.3779 10.9121 10.5 10.5 10.5C9.9475 10.5 9.41759 10.2805 9.02689 9.88984C8.63619 9.49914 8.4167 8.96924 8.4167 8.41671ZM17.6979 14.6667C16.7673 13.0748 15.3348 11.8365 13.625 11.1459C14.1554 10.5445 14.501 9.80281 14.6203 9.00987C14.7396 8.21693 14.6276 7.40641 14.2977 6.67556C13.9678 5.94471 13.434 5.32458 12.7604 4.88959C12.0867 4.45459 11.3019 4.22322 10.5 4.22322C9.69817 4.22322 8.91333 4.45459 8.23971 4.88959C7.56609 5.32458 7.03229 5.94471 6.70237 6.67556C6.37246 7.40641 6.26043 8.21693 6.37975 9.00987C6.49906 9.80281 6.84465 10.5445 7.37503 11.1459C5.66524 11.8365 4.23281 13.0748 3.30211 14.6667C2.56039 13.4033 2.16849 11.9651 2.1667 10.5C2.1667 8.2899 3.04467 6.17029 4.60747 4.60748C6.17028 3.04468 8.28989 2.16671 10.5 2.16671C12.7102 2.16671 14.8298 3.04468 16.3926 4.60748C17.9554 6.17029 18.8334 8.2899 18.8334 10.5C18.8316 11.9651 18.4397 13.4033 17.6979 14.6667Z" fill="white"/>
</svg>
