<svg width="175" height="52" viewBox="0 0 175 52" fill="none" xmlns="http://www.w3.org/2000/svg">
<path fill-rule="evenodd" clip-rule="evenodd" d="M83.4806 0.513866C71.8107 1.69131 62.421 6.53179 51.1511 17.1788L45.1619 22.8374L41.5551 22.9379L37.9484 23.0378L41.2383 23.2227C43.0474 23.3248 44.5282 23.5904 44.5282 23.8138C44.5282 24.5085 30.709 37.6551 28.2076 39.3408C21.7626 43.6829 18.0321 44.9234 12.3887 44.6005C5.66783 44.2151 0.825091 40.8968 0.846147 36.6907C0.85299 35.3585 1.761 32.899 1.92313 33.7733C2.26633 35.622 2.41793 36.0652 2.8543 36.4969C3.61651 37.251 5.58571 36.4407 6.05788 35.1789C6.66954 33.5421 6.14052 32.2402 4.71929 31.8877C2.98064 31.456 1.06039 32.8318 0.325026 35.0362C-0.188199 36.5745 -0.124506 37.2099 0.738238 39.1382C3.25014 44.7567 12.2729 47.0564 21.1041 44.3297C27.9476 42.2165 33.5878 38.304 43.2559 28.9631L49.0903 23.3269L55.9586 23.4727L62.8274 23.6185L59.1801 29.2974C53.0772 38.7997 51.5185 40.5969 47.736 42.4961C44.7835 43.9782 43.8518 44.1886 40.2355 44.1886C37.9641 44.1886 36.106 44.4057 36.106 44.6713C36.106 45.3921 37.662 45.5707 40.3171 45.1541C41.6199 44.9499 43.9886 44.8718 45.5809 44.9812C47.8649 45.1374 48.087 45.0942 46.6337 44.7755L44.7914 44.3714L46.3705 43.9579C49.3635 43.1741 54.5974 39.9308 57.6214 36.9859C61.2856 33.4182 63.8938 29.6416 67.9254 22.0666C73.961 10.727 78.6205 4.96742 83.9017 2.31987C86.8542 0.839863 89.0108 0.664366 93.6998 1.52206C97.0187 2.12875 98.0025 1.81629 96.407 0.662283C95.2606 -0.16677 90.741 -0.218846 83.4806 0.513866ZM81.9015 2.59483C78.0783 4.7336 69.1577 13.7303 65.8467 18.7869L63.2148 22.8061L56.4545 22.8217L49.6941 22.8374L51.8628 20.2747C56.4792 14.8197 65.5814 7.46603 71.2027 4.64975C74.4989 2.99842 81.0771 1.04244 83.4806 0.998695C84.5281 0.979947 84.206 1.30542 81.9015 2.59483ZM113.22 17.9255C109.871 23.4914 107.007 28.045 106.855 28.045C106.704 28.045 106.684 27.8689 106.812 27.6544C106.939 27.4398 106.843 26.7363 106.597 26.0921C105.93 24.347 103.206 24.56 99.0979 26.6785C94.1183 29.2464 92.1654 30.893 88.8776 35.2981C87.259 37.4671 84.9676 40.311 83.7864 41.6176C82.6047 42.9247 83.119 42.4878 84.9282 40.6469L88.2181 37.2999L88.226 39.3122C88.236 41.9472 89.2066 43.7584 91.0863 44.65C92.4297 45.2874 92.8139 45.2619 94.3689 44.4333C95.3374 43.9178 96.4223 43.1429 96.7797 42.7117C97.1371 42.281 96.4028 42.5987 95.1469 43.4178C92.4528 45.1759 91.2106 44.7963 90.9442 42.1331C90.7105 39.7881 92.7871 35.8246 96.5965 31.3476C101.101 26.0531 104.773 24.0913 106.027 26.3087C106.906 27.8622 105.216 31.4638 101.18 36.6375C100.286 37.7832 99.9306 38.4274 100.389 38.0691C101.132 37.489 101.196 37.6978 100.974 39.9834C100.754 42.242 100.893 42.7148 102.13 43.9391C103.826 45.6165 105.67 45.391 107.694 43.2601L109.01 41.8743L107.694 42.9716C105.675 44.6557 104.173 44.9421 103.536 43.7657C103.116 42.9887 103.396 41.9509 104.819 39.0127C105.82 36.9458 107.433 34.0426 108.402 32.561C112.638 26.0879 123.511 8.63046 123.374 8.52214C123.291 8.45704 122.342 8.26905 121.266 8.10501L119.309 7.80609L113.22 17.9255ZM123.486 25.8916C120.813 26.9321 117.002 29.1886 115.121 30.8435C113.095 32.6261 110.853 36.4542 110.853 38.1306C110.853 38.983 110.444 40.1673 109.946 40.7625C109.447 41.3582 109.374 41.554 109.784 41.1978C110.399 40.6641 110.643 40.8166 111.175 42.0696C112.065 44.1641 114.154 45.4353 115.981 44.9958C116.79 44.801 118.83 43.1741 120.591 41.3207L123.749 37.9952L123.572 40.4974C123.415 42.7065 123.563 43.1309 124.827 44.1152C125.615 44.7286 126.643 45.2228 127.11 45.2145C127.849 45.2004 127.839 45.1285 127.039 44.6677C125.057 43.5256 125.875 41.2395 131.707 31.6153C133.555 28.5668 135.066 25.9302 135.066 25.7567C135.066 25.5833 134.135 25.4412 132.996 25.4412C131.331 25.4412 130.855 25.663 130.561 26.5785C130.203 27.695 130.183 27.6903 129.456 26.3181C128.57 24.6439 126.981 24.5303 123.486 25.8916ZM148.165 25.639C144.325 26.9962 140.102 30.5274 137.442 34.6024C136.491 36.0611 134.205 38.8607 132.362 40.8239C130.52 42.7872 129.605 43.9594 130.329 43.4283C131.053 42.8976 132.711 41.1952 134.014 39.6455L136.382 36.8281L136.645 39.2111C137.149 43.7688 141.332 46.2914 145.299 44.4292C146.35 43.9355 147.119 43.4408 147.007 43.3298C146.895 43.2189 146.117 43.4829 145.278 43.9157C140.093 46.5903 138.088 42.0264 141.488 35.2888C142.447 33.3875 144.57 30.5321 146.42 28.6548C149.142 25.8927 149.914 25.3865 151.184 25.5302C153.328 25.7724 153.599 28.072 151.645 29.4302C148.409 31.6788 147.173 32.8828 147.173 33.789C147.173 36.223 150.315 35.6038 152.191 32.7995C153.825 30.3577 154.244 27.1138 153.092 25.8317C152.132 24.7631 150.791 24.7105 148.165 25.639ZM168.152 25.4261C165.907 26.0973 160.726 28.9917 159.017 30.53C158.148 31.3112 156.511 33.1224 155.379 34.5545C154.246 35.9866 152.114 38.4472 150.641 40.0225L147.963 42.8867L151.253 39.7782L154.543 36.6703L154.545 38.7367C154.547 41.6973 156.137 43.9954 158.711 44.7583C161.732 45.654 164.668 44.4109 168.844 40.4683L172.176 37.3234L169.018 40.0162C165.113 43.3455 163.293 44.3136 160.817 44.3776C158.414 44.4401 157.174 43.4663 157.174 41.5155C157.174 39.8387 159.135 35.3356 159.864 35.3356C160.122 35.3356 160.333 34.9727 160.333 34.5295C160.333 33.1521 167.853 26.1265 169.773 25.7088C172.125 25.198 172.95 26.0557 171.895 27.9153C170.866 29.7307 167.706 31.9007 163.754 33.5067C162.017 34.2123 160.895 34.7956 161.261 34.8024C162.398 34.8237 169.036 32.8844 170.647 32.06C176.721 28.9527 174.663 23.4795 168.152 25.4261ZM69.1998 29.9796C67.6754 32.4761 65.5904 35.4643 64.566 36.6193C63.5417 37.7749 63.2453 38.2633 63.9081 37.7041L65.1119 36.6875L64.5581 38.1285C63.6364 40.5276 63.8944 42.5648 65.2967 43.9516C66.0073 44.6547 67.0137 45.2228 67.5338 45.2145C68.4271 45.1994 68.4286 45.1697 67.5575 44.6677C65.5988 43.5392 66.8811 40.1704 72.695 31.1695C76.5234 25.2433 76.476 25.4412 74.0594 25.4412C71.997 25.4412 71.9359 25.4984 69.1998 29.9796ZM79.6601 31.0393C77.7583 34.1181 76.146 36.8719 76.077 37.1583C76.0086 37.4447 75.5738 37.9894 75.1106 38.3685C74.6479 38.7477 74.551 38.9185 74.8958 38.7477C75.3464 38.5243 75.4385 38.9487 75.2232 40.261C74.7053 43.4184 77.7409 46.1498 80.2107 44.7484C80.9345 44.3375 80.8013 44.2578 79.5333 44.3427C76.3676 44.5557 77.2919 41.7368 83.8091 31.306C85.6551 28.3517 87.1653 25.8234 87.1653 25.6875C87.1653 25.5521 86.2547 25.4412 85.1419 25.4412C83.1348 25.4412 83.0906 25.4865 79.6601 31.0393ZM129.001 26.4447C129.457 27.8658 128.167 30.6113 124.868 35.2435C122.071 39.169 116.685 44.7093 115.665 44.7093C114.082 44.7093 113.485 43.9745 113.485 42.029C113.485 39.483 114.95 36.5693 118.389 32.2762C122.934 26.604 128.135 23.7456 129.001 26.4447ZM173.491 34.9451C172.716 35.9923 172.589 36.3563 173.157 35.8991C174.02 35.206 175.326 33.2526 174.926 33.2526C174.825 33.2526 174.179 34.0145 173.491 34.9451ZM61.8315 39.8923C61.1772 40.7182 61.1956 40.7364 62.0304 40.0891C62.5374 39.696 62.9516 39.2856 62.9516 39.1778C62.9516 38.7492 62.5195 39.0247 61.8315 39.8923ZM98.1794 40.4131L96.9034 41.8451L98.351 40.5828C99.7038 39.4028 100.04 38.981 99.6269 38.981C99.5327 38.981 98.8816 39.6251 98.1794 40.4131ZM57.3246 42.9606C56.1113 43.66 54.0978 44.451 52.8503 44.7182L50.5816 45.2041L52.9503 44.9833C55.4854 44.7468 58.2242 43.609 59.2759 42.355C60.087 41.3884 60.0097 41.4124 57.3246 42.9606ZM70.281 43.5376L69.005 44.9697L70.4526 43.7074C71.8054 42.5273 72.1418 42.1055 71.7286 42.1055C71.6343 42.1055 70.9832 42.7497 70.281 43.5376ZM21.3672 51.4792C21.3672 51.824 45.1525 52 91.6706 52C138.406 52 161.865 51.8255 161.649 51.4792C161.198 50.7585 21.3672 50.7585 21.3672 51.4792Z" fill="white"/>
</svg>
